<svg width="40" height="6" viewBox="0 0 40 6" fill="none" xmlns="http://www.w3.org/2000/svg">
<path d="M35.2042 5.66656H4.53041C2.96135 5.67164 1.52576 4.7784 0.82865 3.36332L0.0886247 1.87175C-0.115705 1.4599 0.0502887 0.959224 0.459491 0.753453C0.868616 0.547761 1.36598 0.714862 1.57038 1.12679L2.31041 2.61836C2.72885 3.46675 3.58954 4.00235 4.53049 3.99993H35.2043C36.1459 4.00297 37.0073 3.46722 37.426 2.61836L38.166 1.12679C38.3704 0.71494 38.8677 0.547761 39.2769 0.753453C39.6861 0.959146 39.8521 1.45982 39.6478 1.87175L38.9078 3.36332C38.2102 4.77903 36.7739 5.67226 35.2042 5.66656Z" fill="#CFD8DC"/>
</svg>
